<svg width="22" height="18" viewBox="0 0 22 18" fill="none" xmlns="http://www.w3.org/2000/svg">
<path d="M20.9297 6.5H18.2207L13.4336 0.896484C13.0996 0.525391 12.543 0.488281 12.1719 0.785156C11.8008 1.11914 11.7637 1.67578 12.0605 2.04688L15.8828 6.5H5.45508L9.27734 2.04688C9.57422 1.67578 9.53711 1.11914 9.16602 0.785156C8.79492 0.488281 8.23828 0.525391 7.9043 0.896484L3.11719 6.5H0.445312C0.185547 6.5 0 6.72266 0 6.94531V7.83594C0 8.0957 0.185547 8.28125 0.445312 8.28125H1.11328L2.15234 15.666C2.26367 16.5566 3.00586 17.1875 3.89648 17.1875H17.4414C18.332 17.1875 19.0742 16.5566 19.1855 15.666L20.2246 8.28125H20.9297C21.1523 8.28125 21.375 8.0957 21.375 7.83594V6.94531C21.375 6.72266 21.1523 6.5 20.9297 6.5ZM17.4414 15.4062H3.89648L2.93164 8.28125H18.4062L17.4414 15.4062ZM11.5781 10.3594C11.5781 9.87695 11.1699 9.46875 10.6875 9.46875C10.168 9.46875 9.79688 9.87695 9.79688 10.3594V13.3281C9.79688 13.8477 10.168 14.2188 10.6875 14.2188C11.1699 14.2188 11.5781 13.8477 11.5781 13.3281V10.3594ZM15.7344 10.3594C15.7344 9.87695 15.3262 9.46875 14.8438 9.46875C14.3242 9.46875 13.9531 9.87695 13.9531 10.3594V13.3281C13.9531 13.8477 14.3242 14.2188 14.8438 14.2188C15.3262 14.2188 15.7344 13.8477 15.7344 13.3281V10.3594ZM7.42188 10.3594C7.42188 9.87695 7.01367 9.46875 6.53125 9.46875C6.01172 9.46875 5.64062 9.87695 5.64062 10.3594V13.3281C5.64062 13.8477 6.01172 14.2188 6.53125 14.2188C7.01367 14.2188 7.42188 13.8477 7.42188 13.3281V10.3594Z" fill="#333"/>
</svg>
