<svg width="15" height="16" viewBox="0 0 15 16" fill="none" xmlns="http://www.w3.org/2000/svg">
<path d="M11.25 10.7188C10.0488 10.7188 9.84375 10.6895 9.11133 10.9238C8.61328 11.0996 8.05664 11.1875 7.5 11.1875C6.91406 11.1875 6.35742 11.0996 5.85938 10.9238C5.12695 10.6895 4.92188 10.7188 3.75 10.7188C1.66992 10.7188 0 12.418 0 14.4688V14.9375C0 15.4648 0.410156 15.875 0.9375 15.875H14.0625C14.5605 15.875 15 15.4648 15 14.9375V14.4688C15 12.418 13.3008 10.7188 11.25 10.7188ZM13.5938 14.4688H1.40625C1.40625 13.8535 1.64062 13.2676 2.08008 12.8281C2.51953 12.3887 3.10547 12.125 3.75 12.125C4.95117 12.125 4.95117 12.0957 5.39062 12.2715C6.06445 12.4766 6.76758 12.5938 7.5 12.5938C8.20312 12.5938 8.90625 12.4766 9.58008 12.2715C10.0488 12.0957 10.0195 12.125 11.25 12.125C12.5391 12.125 13.5938 13.1797 13.5938 14.4688ZM7.5 10.25C10.0781 10.25 12.1875 8.16992 12.1875 5.5625C12.1875 2.98438 10.0781 0.875 7.5 0.875C4.89258 0.875 2.8125 2.98438 2.8125 5.5625C2.8125 8.16992 4.89258 10.25 7.5 10.25ZM7.5 2.28125C9.28711 2.28125 10.7812 3.77539 10.7812 5.5625C10.7812 7.37891 9.28711 8.84375 7.5 8.84375C5.68359 8.84375 4.21875 7.37891 4.21875 5.5625C4.21875 3.77539 5.68359 2.28125 7.5 2.28125Z" fill="#333"/>
</svg>
